{
 "cells": [
  {
   "cell_type": "code",
   "execution_count": 3,
   "metadata": {},
   "outputs": [
    {
     "data": {
      "text/html": [
       "<style>.container { width:100% !important; }</style>"
      ],
      "text/plain": [
       "<IPython.core.display.HTML object>"
      ]
     },
     "metadata": {},
     "output_type": "display_data"
    }
   ],
   "source": [
    "from IPython.display import display, HTML\n",
    "display(HTML(\"<style>.container { width:100% !important; }</style>\"))"
   ]
  },
  {
   "cell_type": "code",
   "execution_count": 5,
   "metadata": {},
   "outputs": [
    {
     "name": "stdout",
     "output_type": "stream",
     "text": [
      "ffmpeg version 5.1.1 Copyright (c) 2000-2022 the FFmpeg developers\n",
      "  built with Apple clang version 13.1.6 (clang-1316.0.21.2.5)\n",
      "  configuration: --prefix=/opt/homebrew/Cellar/ffmpeg/5.1.1 --enable-shared --enable-pthreads --enable-version3 --cc=clang --host-cflags= --host-ldflags= --enable-ffplay --enable-gnutls --enable-gpl --enable-libaom --enable-libbluray --enable-libdav1d --enable-libmp3lame --enable-libopus --enable-librav1e --enable-librist --enable-librubberband --enable-libsnappy --enable-libsrt --enable-libtesseract --enable-libtheora --enable-libvidstab --enable-libvmaf --enable-libvorbis --enable-libvpx --enable-libwebp --enable-libx264 --enable-libx265 --enable-libxml2 --enable-libxvid --enable-lzma --enable-libfontconfig --enable-libfreetype --enable-frei0r --enable-libass --enable-libopencore-amrnb --enable-libopencore-amrwb --enable-libopenjpeg --enable-libspeex --enable-libsoxr --enable-libzmq --enable-libzimg --disable-libjack --disable-indev=jack --enable-videotoolbox --enable-neon\n",
      "  libavutil      57. 28.100 / 57. 28.100\n",
      "  libavcodec     59. 37.100 / 59. 37.100\n",
      "  libavformat    59. 27.100 / 59. 27.100\n",
      "  libavdevice    59.  7.100 / 59.  7.100\n",
      "  libavfilter     8. 44.100 /  8. 44.100\n",
      "  libswscale      6.  7.100 /  6.  7.100\n",
      "  libswresample   4.  7.100 /  4.  7.100\n",
      "  libpostproc    56.  6.100 / 56.  6.100\n",
      "Input #0, mov,mp4,m4a,3gp,3g2,mj2, from 'B.mov':\n",
      "  Metadata:\n",
      "    major_brand     : qt  \n",
      "    minor_version   : 0\n",
      "    compatible_brands: qt  \n",
      "    creation_time   : 2022-12-26T02:57:12.000000Z\n",
      "    com.apple.quicktime.creationdate: 2022-01-22T11:43:43-06:00\n",
      "  Duration: 00:00:09.27, start: 0.000000, bitrate: 6829 kb/s\n",
      "  Stream #0:0[0x1](und): Video: h264 (Main) (avc1 / 0x31637661), yuvj420p(pc, smpte170m/smpte432/bt709, progressive), 656x1232, 6723 kb/s, 30.01 fps, 30 tbr, 600 tbn (default)\n",
      "    Metadata:\n",
      "      creation_time   : 2022-12-26T02:57:12.000000Z\n",
      "      handler_name    : Core Media Video\n",
      "      vendor_id       : [0][0][0][0]\n",
      "      encoder         : H.264\n",
      "  Stream #0:1[0x2](und): Audio: aac (LC) (mp4a / 0x6134706D), 44100 Hz, mono, fltp, 100 kb/s (default)\n",
      "    Metadata:\n",
      "      creation_time   : 2022-12-26T02:57:12.000000Z\n",
      "      handler_name    : Core Media Audio\n",
      "      vendor_id       : [0][0][0][0]\n",
      "Stream mapping:\n",
      "  Stream #0:0 -> #0:0 (h264 (native) -> h264 (libx264))\n",
      "  Stream #0:1 -> #0:1 (aac (native) -> mp2 (native))\n",
      "Press [q] to stop, [?] for help\n",
      "\u001b[1;36m[libx264 @ 0x11f005460] \u001b[0musing cpu capabilities: ARMv8 NEON\n",
      "\u001b[1;36m[libx264 @ 0x11f005460] \u001b[0mprofile High, level 3.1, 4:2:0, 8-bit\n",
      "\u001b[1;36m[libx264 @ 0x11f005460] \u001b[0m264 - core 164 r3095 baee400 - H.264/MPEG-4 AVC codec - Copyleft 2003-2022 - http://www.videolan.org/x264.html - options: cabac=1 ref=3 deblock=1:0:0 analyse=0x3:0x113 me=hex subme=7 psy=1 psy_rd=1.00:0.00 mixed_ref=1 me_range=16 chroma_me=1 trellis=1 8x8dct=1 cqm=0 deadzone=21,11 fast_pskip=1 chroma_qp_offset=-2 threads=15 lookahead_threads=2 sliced_threads=0 nr=0 decimate=1 interlaced=0 bluray_compat=0 constrained_intra=0 bframes=3 b_pyramid=2 b_adapt=1 b_bias=0 direct=1 weightb=1 open_gop=0 weightp=2 keyint=250 keyint_min=25 scenecut=40 intra_refresh=0 rc_lookahead=40 rc=crf mbtree=1 crf=23.0 qcomp=0.60 qpmin=0 qpmax=69 qpstep=4 ip_ratio=1.40 aq=1:1.00\n",
      "Output #0, mp4, to 'B.mp4':\n",
      "  Metadata:\n",
      "    major_brand     : qt  \n",
      "    minor_version   : 0\n",
      "    compatible_brands: qt  \n",
      "    com.apple.quicktime.creationdate: 2022-01-22T11:43:43-06:00\n",
      "    encoder         : Lavf59.27.100\n",
      "  Stream #0:0(und): Video: h264 (avc1 / 0x31637661), yuvj420p(pc, smpte170m/smpte432/bt709, progressive), 656x1232, q=2-31, 30 fps, 15360 tbn (default)\n",
      "    Metadata:\n",
      "      creation_time   : 2022-12-26T02:57:12.000000Z\n",
      "      handler_name    : Core Media Video\n",
      "      vendor_id       : [0][0][0][0]\n",
      "      encoder         : Lavc59.37.100 libx264\n",
      "    Side data:\n",
      "      cpb: bitrate max/min/avg: 0/0/0 buffer size: 0 vbv_delay: N/A\n",
      "  Stream #0:1(und): Audio: mp2 (mp4a / 0x6134706D), 44100 Hz, mono, s16, 384 kb/s (default)\n",
      "    Metadata:\n",
      "      creation_time   : 2022-12-26T02:57:12.000000Z\n",
      "      handler_name    : Core Media Audio\n",
      "      vendor_id       : [0][0][0][0]\n",
      "      encoder         : Lavc59.37.100 mp2\n",
      "frame=  278 fps=179 q=-1.0 Lsize=    3819kB time=00:00:09.23 bitrate=3386.8kbits/s speed=5.93x    \n",
      "video:3381kB audio:429kB subtitle:0kB other streams:0kB global headers:0kB muxing overhead: 0.256900%\n",
      "\u001b[1;36m[libx264 @ 0x11f005460] \u001b[0mframe I:10    Avg QP:22.84  size: 25546\n",
      "\u001b[1;36m[libx264 @ 0x11f005460] \u001b[0mframe P:80    Avg QP:25.21  size: 20250\n",
      "\u001b[1;36m[libx264 @ 0x11f005460] \u001b[0mframe B:188   Avg QP:26.71  size:  8437\n",
      "\u001b[1;36m[libx264 @ 0x11f005460] \u001b[0mconsecutive B-frames:  6.1%  8.6%  7.6% 77.7%\n",
      "\u001b[1;36m[libx264 @ 0x11f005460] \u001b[0mmb I  I16..4: 13.8% 67.3% 19.0%\n",
      "\u001b[1;36m[libx264 @ 0x11f005460] \u001b[0mmb P  I16..4:  9.9% 41.3%  7.4%  P16..4: 28.3%  7.6%  2.7%  0.0%  0.0%    skip: 2.8%\n",
      "\u001b[1;36m[libx264 @ 0x11f005460] \u001b[0mmb B  I16..4:  2.2%  6.3%  1.0%  B16..8: 40.6%  6.1%  1.0%  direct: 6.2%  skip:36.7%  L0:47.7% L1:45.4% BI: 6.9%\n",
      "\u001b[1;36m[libx264 @ 0x11f005460] \u001b[0m8x8 transform intra:69.2% inter:81.0%\n",
      "\u001b[1;36m[libx264 @ 0x11f005460] \u001b[0mcoded y,uvDC,uvAC intra: 56.4% 36.5% 0.6% inter: 23.7% 16.1% 0.0%\n",
      "\u001b[1;36m[libx264 @ 0x11f005460] \u001b[0mi16 v,h,dc,p: 17% 16% 12% 55%\n",
      "\u001b[1;36m[libx264 @ 0x11f005460] \u001b[0mi8 v,h,dc,ddl,ddr,vr,hd,vl,hu: 21% 13% 18%  5% 11% 13%  7%  6%  5%\n",
      "\u001b[1;36m[libx264 @ 0x11f005460] \u001b[0mi4 v,h,dc,ddl,ddr,vr,hd,vl,hu: 25% 10% 14%  5% 15% 18%  6%  5%  3%\n",
      "\u001b[1;36m[libx264 @ 0x11f005460] \u001b[0mi8c dc,h,v,p: 55% 19% 22%  4%\n",
      "\u001b[1;36m[libx264 @ 0x11f005460] \u001b[0mWeighted P-Frames: Y:6.2% UV:1.2%\n",
      "\u001b[1;36m[libx264 @ 0x11f005460] \u001b[0mref P L0: 60.4% 13.8% 16.7%  8.5%  0.6%\n",
      "\u001b[1;36m[libx264 @ 0x11f005460] \u001b[0mref B L0: 91.5%  6.4%  2.1%\n",
      "\u001b[1;36m[libx264 @ 0x11f005460] \u001b[0mref B L1: 98.1%  1.9%\n",
      "\u001b[1;36m[libx264 @ 0x11f005460] \u001b[0mkb/s:2988.42\n"
     ]
    }
   ],
   "source": [
    "!ffmpeg -i B.mov -vcodec h264 -acodec mp2 B.mp4"
   ]
  },
  {
   "cell_type": "code",
   "execution_count": 16,
   "metadata": {},
   "outputs": [
    {
     "name": "stdout",
     "output_type": "stream",
     "text": [
      "Creating imgFrames/frame100000.jpg\n",
      "Creating imgFrames/frame100002.jpg\n",
      "Creating imgFrames/frame100004.jpg\n",
      "Creating imgFrames/frame100006.jpg\n",
      "Creating imgFrames/frame100008.jpg\n",
      "Creating imgFrames/frame100010.jpg\n",
      "Creating imgFrames/frame100012.jpg\n",
      "Creating imgFrames/frame100014.jpg\n",
      "Creating imgFrames/frame100016.jpg\n",
      "Creating imgFrames/frame100018.jpg\n",
      "Creating imgFrames/frame100020.jpg\n",
      "Creating imgFrames/frame100022.jpg\n",
      "Creating imgFrames/frame100024.jpg\n",
      "Creating imgFrames/frame100026.jpg\n",
      "Creating imgFrames/frame100028.jpg\n",
      "Creating imgFrames/frame100030.jpg\n",
      "Creating imgFrames/frame100032.jpg\n",
      "Creating imgFrames/frame100034.jpg\n",
      "Creating imgFrames/frame100036.jpg\n",
      "Creating imgFrames/frame100038.jpg\n",
      "Creating imgFrames/frame100040.jpg\n",
      "Creating imgFrames/frame100042.jpg\n",
      "Creating imgFrames/frame100044.jpg\n",
      "Creating imgFrames/frame100046.jpg\n",
      "Creating imgFrames/frame100048.jpg\n",
      "Creating imgFrames/frame100050.jpg\n",
      "Creating imgFrames/frame100052.jpg\n",
      "Creating imgFrames/frame100054.jpg\n",
      "Creating imgFrames/frame100056.jpg\n",
      "Creating imgFrames/frame100058.jpg\n",
      "Creating imgFrames/frame100060.jpg\n",
      "Creating imgFrames/frame100062.jpg\n",
      "Creating imgFrames/frame100064.jpg\n",
      "Creating imgFrames/frame100066.jpg\n",
      "Creating imgFrames/frame100068.jpg\n",
      "Creating imgFrames/frame100070.jpg\n",
      "Creating imgFrames/frame100072.jpg\n",
      "Creating imgFrames/frame100074.jpg\n",
      "Creating imgFrames/frame100076.jpg\n",
      "Creating imgFrames/frame100078.jpg\n",
      "Creating imgFrames/frame100080.jpg\n",
      "Creating imgFrames/frame100082.jpg\n",
      "Creating imgFrames/frame100084.jpg\n",
      "Creating imgFrames/frame100086.jpg\n",
      "Creating imgFrames/frame100088.jpg\n",
      "Creating imgFrames/frame100090.jpg\n",
      "Creating imgFrames/frame100092.jpg\n",
      "Creating imgFrames/frame100094.jpg\n",
      "Creating imgFrames/frame100096.jpg\n",
      "Creating imgFrames/frame100098.jpg\n",
      "Creating imgFrames/frame100100.jpg\n",
      "Creating imgFrames/frame100102.jpg\n",
      "Creating imgFrames/frame100104.jpg\n",
      "Creating imgFrames/frame100106.jpg\n",
      "Creating imgFrames/frame100108.jpg\n",
      "Creating imgFrames/frame100110.jpg\n",
      "Creating imgFrames/frame100112.jpg\n",
      "Creating imgFrames/frame100114.jpg\n",
      "Creating imgFrames/frame100116.jpg\n",
      "Creating imgFrames/frame100118.jpg\n",
      "Creating imgFrames/frame100120.jpg\n",
      "Creating imgFrames/frame100122.jpg\n",
      "Creating imgFrames/frame100124.jpg\n",
      "Creating imgFrames/frame100126.jpg\n",
      "Creating imgFrames/frame100128.jpg\n",
      "Creating imgFrames/frame100130.jpg\n",
      "Creating imgFrames/frame100132.jpg\n",
      "Creating imgFrames/frame100134.jpg\n",
      "Creating imgFrames/frame100136.jpg\n",
      "Creating imgFrames/frame100138.jpg\n",
      "Creating imgFrames/frame100140.jpg\n",
      "Creating imgFrames/frame100142.jpg\n",
      "Creating imgFrames/frame100144.jpg\n",
      "Creating imgFrames/frame100146.jpg\n",
      "Creating imgFrames/frame100148.jpg\n",
      "Creating imgFrames/frame100150.jpg\n",
      "Creating imgFrames/frame100152.jpg\n",
      "Creating imgFrames/frame100154.jpg\n",
      "Creating imgFrames/frame100156.jpg\n",
      "Creating imgFrames/frame100158.jpg\n",
      "Creating imgFrames/frame100160.jpg\n",
      "Creating imgFrames/frame100162.jpg\n",
      "Creating imgFrames/frame100164.jpg\n",
      "Creating imgFrames/frame100166.jpg\n",
      "Creating imgFrames/frame100168.jpg\n",
      "Creating imgFrames/frame100170.jpg\n",
      "Creating imgFrames/frame100172.jpg\n",
      "Creating imgFrames/frame100174.jpg\n",
      "Creating imgFrames/frame100176.jpg\n",
      "Creating imgFrames/frame100178.jpg\n",
      "Creating imgFrames/frame100180.jpg\n",
      "Creating imgFrames/frame100182.jpg\n",
      "Creating imgFrames/frame100184.jpg\n",
      "Creating imgFrames/frame100186.jpg\n",
      "Creating imgFrames/frame100188.jpg\n",
      "Creating imgFrames/frame100190.jpg\n",
      "Creating imgFrames/frame100192.jpg\n",
      "Creating imgFrames/frame100194.jpg\n",
      "Creating imgFrames/frame100196.jpg\n",
      "Creating imgFrames/frame100198.jpg\n",
      "Creating imgFrames/frame100200.jpg\n",
      "Creating imgFrames/frame100202.jpg\n",
      "Creating imgFrames/frame100204.jpg\n",
      "Creating imgFrames/frame100206.jpg\n",
      "Creating imgFrames/frame100208.jpg\n",
      "Creating imgFrames/frame100210.jpg\n",
      "Creating imgFrames/frame100212.jpg\n",
      "Creating imgFrames/frame100214.jpg\n",
      "Creating imgFrames/frame100216.jpg\n",
      "Creating imgFrames/frame100218.jpg\n",
      "Creating imgFrames/frame100220.jpg\n",
      "Creating imgFrames/frame100222.jpg\n",
      "Creating imgFrames/frame100224.jpg\n",
      "Creating imgFrames/frame100226.jpg\n",
      "Creating imgFrames/frame100228.jpg\n",
      "Creating imgFrames/frame100230.jpg\n",
      "Creating imgFrames/frame100232.jpg\n",
      "Creating imgFrames/frame100234.jpg\n",
      "Creating imgFrames/frame100236.jpg\n",
      "Creating imgFrames/frame100238.jpg\n",
      "Creating imgFrames/frame100240.jpg\n",
      "Creating imgFrames/frame100242.jpg\n",
      "Creating imgFrames/frame100244.jpg\n",
      "Creating imgFrames/frame100246.jpg\n",
      "Creating imgFrames/frame100248.jpg\n",
      "Creating imgFrames/frame100250.jpg\n",
      "Creating imgFrames/frame100252.jpg\n",
      "Creating imgFrames/frame100254.jpg\n",
      "Creating imgFrames/frame100256.jpg\n",
      "Creating imgFrames/frame100258.jpg\n",
      "Creating imgFrames/frame100260.jpg\n",
      "Creating imgFrames/frame100262.jpg\n",
      "Creating imgFrames/frame100264.jpg\n",
      "Creating imgFrames/frame100266.jpg\n",
      "Creating imgFrames/frame100268.jpg\n",
      "Creating imgFrames/frame100270.jpg\n",
      "Creating imgFrames/frame100272.jpg\n",
      "Creating imgFrames/frame100274.jpg\n",
      "Creating imgFrames/frame100276.jpg\n",
      "Creating imgFrames/frame100278.jpg\n",
      "Creating imgFrames/frame100280.jpg\n",
      "Creating imgFrames/frame100282.jpg\n",
      "Creating imgFrames/frame100284.jpg\n",
      "Creating imgFrames/frame100286.jpg\n",
      "Creating imgFrames/frame100288.jpg\n",
      "Creating imgFrames/frame100290.jpg\n",
      "Creating imgFrames/frame100292.jpg\n",
      "Creating imgFrames/frame100294.jpg\n",
      "Creating imgFrames/frame100296.jpg\n",
      "Creating imgFrames/frame100298.jpg\n",
      "Creating imgFrames/frame100300.jpg\n",
      "Creating imgFrames/frame100302.jpg\n",
      "Creating imgFrames/frame100304.jpg\n",
      "Creating imgFrames/frame100306.jpg\n",
      "Creating imgFrames/frame100308.jpg\n",
      "Creating imgFrames/frame100310.jpg\n",
      "Creating imgFrames/frame100312.jpg\n",
      "Creating imgFrames/frame100314.jpg\n",
      "Creating imgFrames/frame100316.jpg\n",
      "Creating imgFrames/frame100318.jpg\n",
      "Creating imgFrames/frame100320.jpg\n",
      "Creating imgFrames/frame100322.jpg\n",
      "Creating imgFrames/frame100324.jpg\n",
      "Creating imgFrames/frame100326.jpg\n",
      "Creating imgFrames/frame100328.jpg\n",
      "Creating imgFrames/frame100330.jpg\n",
      "Creating imgFrames/frame100332.jpg\n",
      "Creating imgFrames/frame100334.jpg\n",
      "Creating imgFrames/frame100336.jpg\n",
      "Creating imgFrames/frame100338.jpg\n",
      "Creating imgFrames/frame100340.jpg\n",
      "Creating imgFrames/frame100342.jpg\n",
      "Creating imgFrames/frame100344.jpg\n",
      "Creating imgFrames/frame100346.jpg\n",
      "Creating imgFrames/frame100348.jpg\n",
      "Creating imgFrames/frame100350.jpg\n",
      "Creating imgFrames/frame100352.jpg\n",
      "Creating imgFrames/frame100354.jpg\n",
      "Creating imgFrames/frame100356.jpg\n",
      "Creating imgFrames/frame100358.jpg\n",
      "Creating imgFrames/frame100360.jpg\n",
      "Creating imgFrames/frame100362.jpg\n",
      "Creating imgFrames/frame100364.jpg\n",
      "Creating imgFrames/frame100366.jpg\n",
      "Creating imgFrames/frame100368.jpg\n",
      "Creating imgFrames/frame100370.jpg\n",
      "Creating imgFrames/frame100372.jpg\n",
      "Creating imgFrames/frame100374.jpg\n",
      "Creating imgFrames/frame100376.jpg\n",
      "Creating imgFrames/frame100378.jpg\n",
      "Creating imgFrames/frame100380.jpg\n",
      "Creating imgFrames/frame100382.jpg\n",
      "Creating imgFrames/frame100384.jpg\n",
      "Creating imgFrames/frame100386.jpg\n",
      "Creating imgFrames/frame100388.jpg\n",
      "Creating imgFrames/frame100390.jpg\n",
      "Creating imgFrames/frame100392.jpg\n",
      "Creating imgFrames/frame100394.jpg\n",
      "Creating imgFrames/frame100396.jpg\n",
      "Creating imgFrames/frame100398.jpg\n",
      "Creating imgFrames/frame100400.jpg\n",
      "Creating imgFrames/frame100402.jpg\n",
      "Creating imgFrames/frame100404.jpg\n",
      "Creating imgFrames/frame100406.jpg\n",
      "Creating imgFrames/frame100408.jpg\n",
      "Creating imgFrames/frame100410.jpg\n",
      "Creating imgFrames/frame100412.jpg\n",
      "Creating imgFrames/frame100414.jpg\n",
      "Creating imgFrames/frame100416.jpg\n",
      "Creating imgFrames/frame100418.jpg\n",
      "Creating imgFrames/frame100420.jpg\n",
      "Creating imgFrames/frame100422.jpg\n",
      "Creating imgFrames/frame100424.jpg\n",
      "Creating imgFrames/frame100426.jpg\n",
      "Creating imgFrames/frame100428.jpg\n",
      "Creating imgFrames/frame100430.jpg\n",
      "Creating imgFrames/frame100432.jpg\n",
      "Creating imgFrames/frame100434.jpg\n",
      "Creating imgFrames/frame100436.jpg\n",
      "Creating imgFrames/frame100438.jpg\n",
      "Creating imgFrames/frame100440.jpg\n",
      "Creating imgFrames/frame100442.jpg\n",
      "Creating imgFrames/frame100444.jpg\n",
      "Creating imgFrames/frame100446.jpg\n",
      "Creating imgFrames/frame100448.jpg\n",
      "Creating imgFrames/frame100450.jpg\n",
      "Creating imgFrames/frame100452.jpg\n",
      "Creating imgFrames/frame100454.jpg\n",
      "Creating imgFrames/frame100456.jpg\n",
      "Creating imgFrames/frame100458.jpg\n",
      "Creating imgFrames/frame100460.jpg\n",
      "Creating imgFrames/frame100462.jpg\n",
      "Creating imgFrames/frame100464.jpg\n",
      "Creating imgFrames/frame100466.jpg\n",
      "Creating imgFrames/frame100468.jpg\n",
      "Creating imgFrames/frame100470.jpg\n",
      "Creating imgFrames/frame100472.jpg\n",
      "Creating imgFrames/frame100474.jpg\n",
      "Creating imgFrames/frame100476.jpg\n",
      "Creating imgFrames/frame100478.jpg\n",
      "Creating imgFrames/frame100480.jpg\n",
      "Creating imgFrames/frame100482.jpg\n",
      "Creating imgFrames/frame100484.jpg\n",
      "Creating imgFrames/frame100486.jpg\n",
      "Creating imgFrames/frame100488.jpg\n"
     ]
    },
    {
     "name": "stdout",
     "output_type": "stream",
     "text": [
      "Creating imgFrames/frame100490.jpg\n",
      "Creating imgFrames/frame100492.jpg\n",
      "Creating imgFrames/frame100494.jpg\n",
      "Creating imgFrames/frame100496.jpg\n",
      "Creating imgFrames/frame100498.jpg\n",
      "Creating imgFrames/frame100500.jpg\n",
      "Creating imgFrames/frame100502.jpg\n",
      "Creating imgFrames/frame100504.jpg\n",
      "Creating imgFrames/frame100506.jpg\n",
      "Creating imgFrames/frame100508.jpg\n",
      "Creating imgFrames/frame100510.jpg\n",
      "Creating imgFrames/frame100512.jpg\n",
      "Creating imgFrames/frame100514.jpg\n",
      "Creating imgFrames/frame100516.jpg\n",
      "Creating imgFrames/frame100518.jpg\n",
      "Creating imgFrames/frame100520.jpg\n",
      "Creating imgFrames/frame100522.jpg\n",
      "Creating imgFrames/frame100524.jpg\n",
      "Creating imgFrames/frame100526.jpg\n",
      "Creating imgFrames/frame100528.jpg\n",
      "Creating imgFrames/frame100530.jpg\n",
      "Creating imgFrames/frame100532.jpg\n",
      "Creating imgFrames/frame100534.jpg\n",
      "Creating imgFrames/frame100536.jpg\n",
      "Creating imgFrames/frame100538.jpg\n",
      "Creating imgFrames/frame100540.jpg\n",
      "Creating imgFrames/frame100542.jpg\n",
      "Creating imgFrames/frame100544.jpg\n",
      "Creating imgFrames/frame100546.jpg\n",
      "Creating imgFrames/frame100548.jpg\n",
      "Creating imgFrames/frame100550.jpg\n",
      "Creating imgFrames/frame100552.jpg\n",
      "Creating imgFrames/frame100554.jpg\n",
      "Creating imgFrames/frame100556.jpg\n",
      "Creating imgFrames/frame100558.jpg\n",
      "Creating imgFrames/frame100560.jpg\n",
      "Creating imgFrames/frame100562.jpg\n",
      "Creating imgFrames/frame100001.jpg\n",
      "Creating imgFrames/frame100003.jpg\n",
      "Creating imgFrames/frame100005.jpg\n",
      "Creating imgFrames/frame100007.jpg\n",
      "Creating imgFrames/frame100009.jpg\n",
      "Creating imgFrames/frame100011.jpg\n",
      "Creating imgFrames/frame100013.jpg\n",
      "Creating imgFrames/frame100015.jpg\n",
      "Creating imgFrames/frame100017.jpg\n",
      "Creating imgFrames/frame100019.jpg\n",
      "Creating imgFrames/frame100021.jpg\n",
      "Creating imgFrames/frame100023.jpg\n",
      "Creating imgFrames/frame100025.jpg\n",
      "Creating imgFrames/frame100027.jpg\n",
      "Creating imgFrames/frame100029.jpg\n",
      "Creating imgFrames/frame100031.jpg\n",
      "Creating imgFrames/frame100033.jpg\n",
      "Creating imgFrames/frame100035.jpg\n",
      "Creating imgFrames/frame100037.jpg\n",
      "Creating imgFrames/frame100039.jpg\n",
      "Creating imgFrames/frame100041.jpg\n",
      "Creating imgFrames/frame100043.jpg\n",
      "Creating imgFrames/frame100045.jpg\n",
      "Creating imgFrames/frame100047.jpg\n",
      "Creating imgFrames/frame100049.jpg\n",
      "Creating imgFrames/frame100051.jpg\n",
      "Creating imgFrames/frame100053.jpg\n",
      "Creating imgFrames/frame100055.jpg\n",
      "Creating imgFrames/frame100057.jpg\n",
      "Creating imgFrames/frame100059.jpg\n",
      "Creating imgFrames/frame100061.jpg\n",
      "Creating imgFrames/frame100063.jpg\n",
      "Creating imgFrames/frame100065.jpg\n",
      "Creating imgFrames/frame100067.jpg\n",
      "Creating imgFrames/frame100069.jpg\n",
      "Creating imgFrames/frame100071.jpg\n",
      "Creating imgFrames/frame100073.jpg\n",
      "Creating imgFrames/frame100075.jpg\n",
      "Creating imgFrames/frame100077.jpg\n",
      "Creating imgFrames/frame100079.jpg\n",
      "Creating imgFrames/frame100081.jpg\n",
      "Creating imgFrames/frame100083.jpg\n",
      "Creating imgFrames/frame100085.jpg\n",
      "Creating imgFrames/frame100087.jpg\n",
      "Creating imgFrames/frame100089.jpg\n",
      "Creating imgFrames/frame100091.jpg\n",
      "Creating imgFrames/frame100093.jpg\n",
      "Creating imgFrames/frame100095.jpg\n",
      "Creating imgFrames/frame100097.jpg\n",
      "Creating imgFrames/frame100099.jpg\n",
      "Creating imgFrames/frame100101.jpg\n",
      "Creating imgFrames/frame100103.jpg\n",
      "Creating imgFrames/frame100105.jpg\n",
      "Creating imgFrames/frame100107.jpg\n",
      "Creating imgFrames/frame100109.jpg\n",
      "Creating imgFrames/frame100111.jpg\n",
      "Creating imgFrames/frame100113.jpg\n",
      "Creating imgFrames/frame100115.jpg\n",
      "Creating imgFrames/frame100117.jpg\n",
      "Creating imgFrames/frame100119.jpg\n",
      "Creating imgFrames/frame100121.jpg\n",
      "Creating imgFrames/frame100123.jpg\n",
      "Creating imgFrames/frame100125.jpg\n",
      "Creating imgFrames/frame100127.jpg\n",
      "Creating imgFrames/frame100129.jpg\n",
      "Creating imgFrames/frame100131.jpg\n",
      "Creating imgFrames/frame100133.jpg\n",
      "Creating imgFrames/frame100135.jpg\n",
      "Creating imgFrames/frame100137.jpg\n",
      "Creating imgFrames/frame100139.jpg\n",
      "Creating imgFrames/frame100141.jpg\n",
      "Creating imgFrames/frame100143.jpg\n",
      "Creating imgFrames/frame100145.jpg\n",
      "Creating imgFrames/frame100147.jpg\n",
      "Creating imgFrames/frame100149.jpg\n",
      "Creating imgFrames/frame100151.jpg\n",
      "Creating imgFrames/frame100153.jpg\n",
      "Creating imgFrames/frame100155.jpg\n",
      "Creating imgFrames/frame100157.jpg\n",
      "Creating imgFrames/frame100159.jpg\n",
      "Creating imgFrames/frame100161.jpg\n",
      "Creating imgFrames/frame100163.jpg\n",
      "Creating imgFrames/frame100165.jpg\n",
      "Creating imgFrames/frame100167.jpg\n",
      "Creating imgFrames/frame100169.jpg\n",
      "Creating imgFrames/frame100171.jpg\n",
      "Creating imgFrames/frame100173.jpg\n",
      "Creating imgFrames/frame100175.jpg\n",
      "Creating imgFrames/frame100177.jpg\n",
      "Creating imgFrames/frame100179.jpg\n",
      "Creating imgFrames/frame100181.jpg\n",
      "Creating imgFrames/frame100183.jpg\n",
      "Creating imgFrames/frame100185.jpg\n",
      "Creating imgFrames/frame100187.jpg\n",
      "Creating imgFrames/frame100189.jpg\n",
      "Creating imgFrames/frame100191.jpg\n",
      "Creating imgFrames/frame100193.jpg\n",
      "Creating imgFrames/frame100195.jpg\n",
      "Creating imgFrames/frame100197.jpg\n",
      "Creating imgFrames/frame100199.jpg\n",
      "Creating imgFrames/frame100201.jpg\n",
      "Creating imgFrames/frame100203.jpg\n",
      "Creating imgFrames/frame100205.jpg\n",
      "Creating imgFrames/frame100207.jpg\n",
      "Creating imgFrames/frame100209.jpg\n",
      "Creating imgFrames/frame100211.jpg\n",
      "Creating imgFrames/frame100213.jpg\n",
      "Creating imgFrames/frame100215.jpg\n",
      "Creating imgFrames/frame100217.jpg\n",
      "Creating imgFrames/frame100219.jpg\n",
      "Creating imgFrames/frame100221.jpg\n",
      "Creating imgFrames/frame100223.jpg\n",
      "Creating imgFrames/frame100225.jpg\n",
      "Creating imgFrames/frame100227.jpg\n",
      "Creating imgFrames/frame100229.jpg\n",
      "Creating imgFrames/frame100231.jpg\n",
      "Creating imgFrames/frame100233.jpg\n",
      "Creating imgFrames/frame100235.jpg\n",
      "Creating imgFrames/frame100237.jpg\n",
      "Creating imgFrames/frame100239.jpg\n",
      "Creating imgFrames/frame100241.jpg\n",
      "Creating imgFrames/frame100243.jpg\n",
      "Creating imgFrames/frame100245.jpg\n",
      "Creating imgFrames/frame100247.jpg\n",
      "Creating imgFrames/frame100249.jpg\n",
      "Creating imgFrames/frame100251.jpg\n",
      "Creating imgFrames/frame100253.jpg\n",
      "Creating imgFrames/frame100255.jpg\n",
      "Creating imgFrames/frame100257.jpg\n",
      "Creating imgFrames/frame100259.jpg\n",
      "Creating imgFrames/frame100261.jpg\n",
      "Creating imgFrames/frame100263.jpg\n",
      "Creating imgFrames/frame100265.jpg\n",
      "Creating imgFrames/frame100267.jpg\n",
      "Creating imgFrames/frame100269.jpg\n",
      "Creating imgFrames/frame100271.jpg\n",
      "Creating imgFrames/frame100273.jpg\n",
      "Creating imgFrames/frame100275.jpg\n",
      "Creating imgFrames/frame100277.jpg\n",
      "Creating imgFrames/frame100279.jpg\n",
      "Creating imgFrames/frame100281.jpg\n",
      "Creating imgFrames/frame100283.jpg\n",
      "Creating imgFrames/frame100285.jpg\n",
      "Creating imgFrames/frame100287.jpg\n",
      "Creating imgFrames/frame100289.jpg\n",
      "Creating imgFrames/frame100291.jpg\n",
      "Creating imgFrames/frame100293.jpg\n",
      "Creating imgFrames/frame100295.jpg\n",
      "Creating imgFrames/frame100297.jpg\n",
      "Creating imgFrames/frame100299.jpg\n",
      "Creating imgFrames/frame100301.jpg\n",
      "Creating imgFrames/frame100303.jpg\n",
      "Creating imgFrames/frame100305.jpg\n",
      "Creating imgFrames/frame100307.jpg\n",
      "Creating imgFrames/frame100309.jpg\n",
      "Creating imgFrames/frame100311.jpg\n",
      "Creating imgFrames/frame100313.jpg\n",
      "Creating imgFrames/frame100315.jpg\n",
      "Creating imgFrames/frame100317.jpg\n",
      "Creating imgFrames/frame100319.jpg\n",
      "Creating imgFrames/frame100321.jpg\n",
      "Creating imgFrames/frame100323.jpg\n",
      "Creating imgFrames/frame100325.jpg\n",
      "Creating imgFrames/frame100327.jpg\n",
      "Creating imgFrames/frame100329.jpg\n",
      "Creating imgFrames/frame100331.jpg\n",
      "Creating imgFrames/frame100333.jpg\n",
      "Creating imgFrames/frame100335.jpg\n",
      "Creating imgFrames/frame100337.jpg\n",
      "Creating imgFrames/frame100339.jpg\n",
      "Creating imgFrames/frame100341.jpg\n",
      "Creating imgFrames/frame100343.jpg\n",
      "Creating imgFrames/frame100345.jpg\n",
      "Creating imgFrames/frame100347.jpg\n",
      "Creating imgFrames/frame100349.jpg\n",
      "Creating imgFrames/frame100351.jpg\n",
      "Creating imgFrames/frame100353.jpg\n",
      "Creating imgFrames/frame100355.jpg\n",
      "Creating imgFrames/frame100357.jpg\n",
      "Creating imgFrames/frame100359.jpg\n",
      "Creating imgFrames/frame100361.jpg\n",
      "Creating imgFrames/frame100363.jpg\n",
      "Creating imgFrames/frame100365.jpg\n",
      "Creating imgFrames/frame100367.jpg\n",
      "Creating imgFrames/frame100369.jpg\n",
      "Creating imgFrames/frame100371.jpg\n",
      "Creating imgFrames/frame100373.jpg\n",
      "Creating imgFrames/frame100375.jpg\n",
      "Creating imgFrames/frame100377.jpg\n",
      "Creating imgFrames/frame100379.jpg\n",
      "Creating imgFrames/frame100381.jpg\n",
      "Creating imgFrames/frame100383.jpg\n",
      "Creating imgFrames/frame100385.jpg\n",
      "Creating imgFrames/frame100387.jpg\n",
      "Creating imgFrames/frame100389.jpg\n",
      "Creating imgFrames/frame100391.jpg\n",
      "Creating imgFrames/frame100393.jpg\n",
      "Creating imgFrames/frame100395.jpg\n",
      "Creating imgFrames/frame100397.jpg\n",
      "Creating imgFrames/frame100399.jpg\n",
      "Creating imgFrames/frame100401.jpg\n",
      "Creating imgFrames/frame100403.jpg\n",
      "Creating imgFrames/frame100405.jpg\n",
      "Creating imgFrames/frame100407.jpg\n",
      "Creating imgFrames/frame100409.jpg\n",
      "Creating imgFrames/frame100411.jpg\n",
      "Creating imgFrames/frame100413.jpg\n",
      "Creating imgFrames/frame100415.jpg\n",
      "Creating imgFrames/frame100417.jpg\n",
      "Creating imgFrames/frame100419.jpg\n",
      "Creating imgFrames/frame100421.jpg\n",
      "Creating imgFrames/frame100423.jpg\n",
      "Creating imgFrames/frame100425.jpg\n",
      "Creating imgFrames/frame100427.jpg\n"
     ]
    },
    {
     "name": "stdout",
     "output_type": "stream",
     "text": [
      "Creating imgFrames/frame100429.jpg\n",
      "Creating imgFrames/frame100431.jpg\n",
      "Creating imgFrames/frame100433.jpg\n",
      "Creating imgFrames/frame100435.jpg\n",
      "Creating imgFrames/frame100437.jpg\n",
      "Creating imgFrames/frame100439.jpg\n",
      "Creating imgFrames/frame100441.jpg\n",
      "Creating imgFrames/frame100443.jpg\n",
      "Creating imgFrames/frame100445.jpg\n",
      "Creating imgFrames/frame100447.jpg\n",
      "Creating imgFrames/frame100449.jpg\n",
      "Creating imgFrames/frame100451.jpg\n",
      "Creating imgFrames/frame100453.jpg\n",
      "Creating imgFrames/frame100455.jpg\n",
      "Creating imgFrames/frame100457.jpg\n",
      "Creating imgFrames/frame100459.jpg\n",
      "Creating imgFrames/frame100461.jpg\n",
      "Creating imgFrames/frame100463.jpg\n",
      "Creating imgFrames/frame100465.jpg\n",
      "Creating imgFrames/frame100467.jpg\n",
      "Creating imgFrames/frame100469.jpg\n",
      "Creating imgFrames/frame100471.jpg\n",
      "Creating imgFrames/frame100473.jpg\n",
      "Creating imgFrames/frame100475.jpg\n",
      "Creating imgFrames/frame100477.jpg\n",
      "Creating imgFrames/frame100479.jpg\n",
      "Creating imgFrames/frame100481.jpg\n",
      "Creating imgFrames/frame100483.jpg\n",
      "Creating imgFrames/frame100485.jpg\n",
      "Creating imgFrames/frame100487.jpg\n",
      "Creating imgFrames/frame100489.jpg\n",
      "Creating imgFrames/frame100491.jpg\n",
      "Creating imgFrames/frame100493.jpg\n",
      "Creating imgFrames/frame100495.jpg\n",
      "Creating imgFrames/frame100497.jpg\n",
      "Creating imgFrames/frame100499.jpg\n",
      "Creating imgFrames/frame100501.jpg\n",
      "Creating imgFrames/frame100503.jpg\n",
      "Creating imgFrames/frame100505.jpg\n",
      "Creating imgFrames/frame100507.jpg\n",
      "Creating imgFrames/frame100509.jpg\n",
      "Creating imgFrames/frame100511.jpg\n",
      "Creating imgFrames/frame100513.jpg\n",
      "Creating imgFrames/frame100515.jpg\n",
      "Creating imgFrames/frame100517.jpg\n",
      "Creating imgFrames/frame100519.jpg\n",
      "Creating imgFrames/frame100521.jpg\n",
      "Creating imgFrames/frame100523.jpg\n",
      "Creating imgFrames/frame100525.jpg\n",
      "Creating imgFrames/frame100527.jpg\n",
      "Creating imgFrames/frame100529.jpg\n",
      "Creating imgFrames/frame100531.jpg\n",
      "Creating imgFrames/frame100533.jpg\n",
      "Creating imgFrames/frame100535.jpg\n",
      "Creating imgFrames/frame100537.jpg\n",
      "Creating imgFrames/frame100539.jpg\n",
      "Creating imgFrames/frame100541.jpg\n",
      "Creating imgFrames/frame100543.jpg\n",
      "Creating imgFrames/frame100545.jpg\n",
      "Creating imgFrames/frame100547.jpg\n",
      "Creating imgFrames/frame100549.jpg\n",
      "Creating imgFrames/frame100551.jpg\n",
      "Creating imgFrames/frame100553.jpg\n",
      "Creating imgFrames/frame100555.jpg\n"
     ]
    }
   ],
   "source": [
    "import cv2\n",
    "import numpy as np\n",
    "import os\n",
    "\n",
    "# set video file path of input video with name and extension\n",
    "\n",
    "\n",
    "if not os.path.exists('imgFrames'):\n",
    "    os.makedirs('imgFrames')\n",
    "\n",
    "#---------------------------------------------------------    \n",
    "\n",
    "vid = cv2.VideoCapture('A.MP4')\n",
    "\n",
    "#for frame identity\n",
    "index = 0\n",
    "while(True):\n",
    "    # Extract images\n",
    "    ret, frame = vid.read()\n",
    "    # end of frames\n",
    "    if not ret: \n",
    "        break\n",
    "    # Saves images\n",
    "    name = 'imgFrames/frame' + str(100000+index) + '.jpg'\n",
    "    print ('Creating ' + name)\n",
    "    cv2.imwrite(name, frame)\n",
    "\n",
    "    # next frame\n",
    "    index += 2\n",
    "    \n",
    "#---------------------------------------------------------    \n",
    "    \n",
    "vid = cv2.VideoCapture('B.MP4')\n",
    "\n",
    "index = 1\n",
    "while(True):\n",
    "    # Extract images\n",
    "    ret, frame = vid.read()\n",
    "    # end of frames\n",
    "    if not ret: \n",
    "        break\n",
    "    # Saves images\n",
    "    name = 'imgFrames/frame' + str(100000+index) + '.jpg'\n",
    "    print ('Creating ' + name)\n",
    "    cv2.imwrite(name, frame)\n",
    "\n",
    "    # next frame\n",
    "    index += 2"
   ]
  },
  {
   "cell_type": "code",
   "execution_count": 18,
   "metadata": {},
   "outputs": [
    {
     "name": "stdout",
     "output_type": "stream",
     "text": [
      "ffmpeg version 5.1.1 Copyright (c) 2000-2022 the FFmpeg developers\n",
      "  built with Apple clang version 13.1.6 (clang-1316.0.21.2.5)\n",
      "  configuration: --prefix=/opt/homebrew/Cellar/ffmpeg/5.1.1 --enable-shared --enable-pthreads --enable-version3 --cc=clang --host-cflags= --host-ldflags= --enable-ffplay --enable-gnutls --enable-gpl --enable-libaom --enable-libbluray --enable-libdav1d --enable-libmp3lame --enable-libopus --enable-librav1e --enable-librist --enable-librubberband --enable-libsnappy --enable-libsrt --enable-libtesseract --enable-libtheora --enable-libvidstab --enable-libvmaf --enable-libvorbis --enable-libvpx --enable-libwebp --enable-libx264 --enable-libx265 --enable-libxml2 --enable-libxvid --enable-lzma --enable-libfontconfig --enable-libfreetype --enable-frei0r --enable-libass --enable-libopencore-amrnb --enable-libopencore-amrwb --enable-libopenjpeg --enable-libspeex --enable-libsoxr --enable-libzmq --enable-libzimg --disable-libjack --disable-indev=jack --enable-videotoolbox --enable-neon\n",
      "  libavutil      57. 28.100 / 57. 28.100\n",
      "  libavcodec     59. 37.100 / 59. 37.100\n",
      "  libavformat    59. 27.100 / 59. 27.100\n",
      "  libavdevice    59.  7.100 / 59.  7.100\n",
      "  libavfilter     8. 44.100 /  8. 44.100\n",
      "  libswscale      6.  7.100 /  6.  7.100\n",
      "  libswresample   4.  7.100 /  4.  7.100\n",
      "  libpostproc    56.  6.100 / 56.  6.100\n",
      "Input #0, image2, from 'imgFrames/frame*.jpg':\n",
      "  Duration: 00:00:09.33, start: 0.000000, bitrate: N/A\n",
      "  Stream #0:0: Video: mjpeg (Baseline), yuvj420p(pc, bt470bg/unknown/unknown), 656x1232 [SAR 1:1 DAR 41:77], 60 fps, 60 tbr, 60 tbn\n",
      "Stream mapping:\n",
      "  Stream #0:0 -> #0:0 (mjpeg (native) -> h264 (libx264))\n",
      "Press [q] to stop, [?] for help\n",
      "\u001b[1;36m[libx264 @ 0x121606df0] \u001b[0musing SAR=1/1\n",
      "\u001b[1;36m[libx264 @ 0x121606df0] \u001b[0musing cpu capabilities: ARMv8 NEON\n",
      "\u001b[1;36m[libx264 @ 0x121606df0] \u001b[0mprofile High, level 3.2, 4:2:0, 8-bit\n",
      "\u001b[1;36m[libx264 @ 0x121606df0] \u001b[0m264 - core 164 r3095 baee400 - H.264/MPEG-4 AVC codec - Copyleft 2003-2022 - http://www.videolan.org/x264.html - options: cabac=1 ref=3 deblock=1:0:0 analyse=0x3:0x113 me=hex subme=7 psy=1 psy_rd=1.00:0.00 mixed_ref=1 me_range=16 chroma_me=1 trellis=1 8x8dct=1 cqm=0 deadzone=21,11 fast_pskip=1 chroma_qp_offset=-2 threads=15 lookahead_threads=2 sliced_threads=0 nr=0 decimate=1 interlaced=0 bluray_compat=0 constrained_intra=0 bframes=3 b_pyramid=2 b_adapt=1 b_bias=0 direct=1 weightb=1 open_gop=0 weightp=2 keyint=250 keyint_min=25 scenecut=40 intra_refresh=0 rc_lookahead=40 rc=crf mbtree=1 crf=23.0 qcomp=0.60 qpmin=0 qpmax=69 qpstep=4 ip_ratio=1.40 aq=1:1.00\n",
      "Output #0, mp4, to 'fusion-60fps.mp4':\n",
      "  Metadata:\n",
      "    encoder         : Lavf59.27.100\n",
      "  Stream #0:0: Video: h264 (avc1 / 0x31637661), yuvj420p(pc, bt470bg/unknown/unknown, progressive), 656x1232 [SAR 1:1 DAR 41:77], q=2-31, 60 fps, 15360 tbn\n",
      "    Metadata:\n",
      "      encoder         : Lavc59.37.100 libx264\n",
      "    Side data:\n",
      "      cpb: bitrate max/min/avg: 0/0/0 buffer size: 0 vbv_delay: N/A\n",
      "frame=  560 fps=167 q=-1.0 Lsize=    4218kB time=00:00:09.28 bitrate=3721.8kbits/s speed=2.76x    \n",
      "video:4214kB audio:0kB subtitle:0kB other streams:0kB global headers:0kB muxing overhead: 0.088828%\n",
      "\u001b[1;36m[libx264 @ 0x121606df0] \u001b[0mframe I:3     Avg QP:26.49  size: 23020\n",
      "\u001b[1;36m[libx264 @ 0x121606df0] \u001b[0mframe P:521   Avg QP:28.67  size:  7071\n",
      "\u001b[1;36m[libx264 @ 0x121606df0] \u001b[0mframe B:36    Avg QP:28.78  size: 15593\n",
      "\u001b[1;36m[libx264 @ 0x121606df0] \u001b[0mconsecutive B-frames: 87.5% 11.8%  0.0%  0.7%\n",
      "\u001b[1;36m[libx264 @ 0x121606df0] \u001b[0mmb I  I16..4: 31.9% 54.1% 14.0%\n",
      "\u001b[1;36m[libx264 @ 0x121606df0] \u001b[0mmb P  I16..4:  8.8% 14.4%  0.8%  P16..4: 68.7%  1.6%  3.4%  0.0%  0.0%    skip: 2.3%\n",
      "\u001b[1;36m[libx264 @ 0x121606df0] \u001b[0mmb B  I16..4: 24.7% 36.2%  7.4%  B16..8:  7.7%  0.7%  0.1%  direct: 2.0%  skip:21.4%  L0:77.7% L1:21.2% BI: 1.1%\n",
      "\u001b[1;36m[libx264 @ 0x121606df0] \u001b[0m8x8 transform intra:58.9% inter:94.3%\n",
      "\u001b[1;36m[libx264 @ 0x121606df0] \u001b[0mcoded y,uvDC,uvAC intra: 30.9% 39.0% 1.6% inter: 15.6% 16.3% 0.0%\n",
      "\u001b[1;36m[libx264 @ 0x121606df0] \u001b[0mi16 v,h,dc,p: 20% 35% 13% 32%\n",
      "\u001b[1;36m[libx264 @ 0x121606df0] \u001b[0mi8 v,h,dc,ddl,ddr,vr,hd,vl,hu: 19% 17% 29%  3%  8%  9%  6%  4%  5%\n",
      "\u001b[1;36m[libx264 @ 0x121606df0] \u001b[0mi4 v,h,dc,ddl,ddr,vr,hd,vl,hu: 20% 26% 13%  3% 10% 12%  8%  3%  5%\n",
      "\u001b[1;36m[libx264 @ 0x121606df0] \u001b[0mi8c dc,h,v,p: 60% 23% 14%  3%\n",
      "\u001b[1;36m[libx264 @ 0x121606df0] \u001b[0mWeighted P-Frames: Y:3.3% UV:3.3%\n",
      "\u001b[1;36m[libx264 @ 0x121606df0] \u001b[0mref P L0:  3.3%  0.8% 92.6%  3.2%\n",
      "\u001b[1;36m[libx264 @ 0x121606df0] \u001b[0mref B L0: 10.1% 89.9%\n",
      "\u001b[1;36m[libx264 @ 0x121606df0] \u001b[0mref B L1: 93.6%  6.4%\n",
      "\u001b[1;36m[libx264 @ 0x121606df0] \u001b[0mkb/s:3698.04\n"
     ]
    }
   ],
   "source": [
    "!ffmpeg -framerate 60 -pattern_type glob -i 'imgFrames/frame*.jpg' 'fusion-60fps.mp4'"
   ]
  },
  {
   "cell_type": "code",
   "execution_count": null,
   "metadata": {},
   "outputs": [],
   "source": []
  }
 ],
 "metadata": {
  "accelerator": "GPU",
  "colab": {
   "collapsed_sections": [],
   "name": "style_transfer.ipynb",
   "toc_visible": true
  },
  "kernelspec": {
   "display_name": "pytorch",
   "language": "python",
   "name": "pytorch"
  },
  "language_info": {
   "codemirror_mode": {
    "name": "ipython",
    "version": 3
   },
   "file_extension": ".py",
   "mimetype": "text/x-python",
   "name": "python",
   "nbconvert_exporter": "python",
   "pygments_lexer": "ipython3",
   "version": "3.10.4"
  }
 },
 "nbformat": 4,
 "nbformat_minor": 1
}
